<?xml version="1.0" encoding="UTF-8" standalone="no"?>
<!DOCTYPE svg PUBLIC "-//W3C//DTD SVG 1.1//EN" "http://www.w3.org/Graphics/SVG/1.1/DTD/svg11.dtd">
<svg width="100%" height="100%" viewBox="0 0 128 60" version="1.1" xmlns="http://www.w3.org/2000/svg" xmlns:xlink="http://www.w3.org/1999/xlink" xml:space="preserve" xmlns:serif="http://www.serif.com/" style="fill-rule:evenodd;clip-rule:evenodd;stroke-linejoin:round;stroke-miterlimit:2;">
    <g transform="matrix(1.87865,0,0,1.87865,-29.3587,4.13655)">
        <g transform="matrix(12,0,0,12,16.1119,18.4233)">
            <path d="M0.244,-0L0.244,-0.613L0.004,-0.613L0.004,-0.7L0.583,-0.7L0.583,-0.613L0.343,-0.613L0.343,-0L0.244,-0Z" style="fill:url(#_Linear1);fill-rule:nonzero;"/>
        </g>
        <g transform="matrix(12,0,0,12,23.1559,18.4233)">
            <path d="M0.091,-0L0.091,-0.53L0.187,-0.53L0.187,-0L0.091,-0ZM0.139,-0.632C0.121,-0.632 0.105,-0.638 0.093,-0.65C0.08,-0.662 0.074,-0.677 0.074,-0.694C0.074,-0.712 0.08,-0.727 0.093,-0.739C0.105,-0.751 0.121,-0.757 0.139,-0.757C0.158,-0.757 0.173,-0.751 0.185,-0.74C0.198,-0.728 0.204,-0.714 0.204,-0.696C0.204,-0.678 0.198,-0.663 0.186,-0.651C0.174,-0.638 0.158,-0.632 0.139,-0.632Z" style="fill:url(#_Linear2);fill-rule:nonzero;"/>
        </g>
        <g transform="matrix(12,0,0,12,26.5039,18.4233)">
            <path d="M0.42,-0L0.42,-0.112L0.415,-0.133L0.415,-0.324C0.415,-0.365 0.404,-0.396 0.38,-0.419C0.356,-0.441 0.321,-0.452 0.273,-0.452C0.241,-0.452 0.211,-0.447 0.181,-0.437C0.151,-0.426 0.126,-0.413 0.105,-0.395L0.065,-0.467C0.092,-0.489 0.125,-0.506 0.164,-0.518C0.202,-0.529 0.242,-0.535 0.284,-0.535C0.357,-0.535 0.413,-0.517 0.452,-0.482C0.492,-0.447 0.511,-0.392 0.511,-0.32L0.511,-0L0.42,-0ZM0.246,0.006C0.207,0.006 0.172,-0.001 0.142,-0.014C0.113,-0.027 0.09,-0.046 0.074,-0.069C0.058,-0.093 0.05,-0.12 0.05,-0.15C0.05,-0.179 0.057,-0.205 0.07,-0.228C0.084,-0.251 0.106,-0.27 0.137,-0.284C0.169,-0.298 0.21,-0.305 0.263,-0.305L0.431,-0.305L0.431,-0.236L0.267,-0.236C0.219,-0.236 0.187,-0.228 0.17,-0.212C0.153,-0.196 0.145,-0.177 0.145,-0.154C0.145,-0.128 0.155,-0.107 0.176,-0.091C0.197,-0.076 0.226,-0.068 0.262,-0.068C0.298,-0.068 0.33,-0.076 0.357,-0.092C0.384,-0.108 0.403,-0.132 0.415,-0.162L0.434,-0.096C0.421,-0.064 0.399,-0.04 0.367,-0.021C0.335,-0.003 0.295,0.006 0.246,0.006Z" style="fill:url(#_Linear3);fill-rule:nonzero;"/>
        </g>
        <g transform="matrix(12,0,0,12,33.6799,18.4233)">
            <path d="M0.091,-0L0.091,-0.53L0.183,-0.53L0.183,-0.386L0.174,-0.422C0.189,-0.459 0.213,-0.487 0.248,-0.506C0.282,-0.526 0.325,-0.535 0.376,-0.535L0.376,-0.442C0.372,-0.442 0.368,-0.443 0.365,-0.443C0.361,-0.443 0.358,-0.443 0.354,-0.443C0.303,-0.443 0.262,-0.428 0.232,-0.397C0.202,-0.367 0.187,-0.322 0.187,-0.264L0.187,-0L0.091,-0Z" style="fill:url(#_Linear4);fill-rule:nonzero;"/>
        </g>
        <g transform="matrix(12,0,0,12,38.5159,18.4233)">
            <path d="M0.091,-0L0.091,-0.53L0.183,-0.53L0.183,-0.387L0.168,-0.425C0.185,-0.46 0.212,-0.487 0.248,-0.506C0.284,-0.526 0.326,-0.535 0.374,-0.535C0.417,-0.535 0.455,-0.527 0.488,-0.51C0.521,-0.494 0.547,-0.468 0.566,-0.434C0.585,-0.4 0.594,-0.357 0.594,-0.305L0.594,-0L0.498,-0L0.498,-0.294C0.498,-0.346 0.486,-0.384 0.461,-0.41C0.436,-0.436 0.4,-0.449 0.355,-0.449C0.321,-0.449 0.292,-0.443 0.266,-0.429C0.241,-0.416 0.222,-0.396 0.208,-0.37C0.194,-0.344 0.187,-0.312 0.187,-0.273L0.187,-0L0.091,-0Z" style="fill:url(#_Linear5);fill-rule:nonzero;"/>
        </g>
        <g transform="matrix(12,0,0,12,46.6879,18.4233)">
            <path d="M0.42,-0L0.42,-0.112L0.415,-0.133L0.415,-0.324C0.415,-0.365 0.404,-0.396 0.38,-0.419C0.356,-0.441 0.321,-0.452 0.273,-0.452C0.241,-0.452 0.211,-0.447 0.181,-0.437C0.151,-0.426 0.126,-0.413 0.105,-0.395L0.065,-0.467C0.092,-0.489 0.125,-0.506 0.164,-0.518C0.202,-0.529 0.242,-0.535 0.284,-0.535C0.357,-0.535 0.413,-0.517 0.452,-0.482C0.492,-0.447 0.511,-0.392 0.511,-0.32L0.511,-0L0.42,-0ZM0.246,0.006C0.207,0.006 0.172,-0.001 0.142,-0.014C0.113,-0.027 0.09,-0.046 0.074,-0.069C0.058,-0.093 0.05,-0.12 0.05,-0.15C0.05,-0.179 0.057,-0.205 0.07,-0.228C0.084,-0.251 0.106,-0.27 0.137,-0.284C0.169,-0.298 0.21,-0.305 0.263,-0.305L0.431,-0.305L0.431,-0.236L0.267,-0.236C0.219,-0.236 0.187,-0.228 0.17,-0.212C0.153,-0.196 0.145,-0.177 0.145,-0.154C0.145,-0.128 0.155,-0.107 0.176,-0.091C0.197,-0.076 0.226,-0.068 0.262,-0.068C0.298,-0.068 0.33,-0.076 0.357,-0.092C0.384,-0.108 0.403,-0.132 0.415,-0.162L0.434,-0.096C0.421,-0.064 0.399,-0.04 0.367,-0.021C0.335,-0.003 0.295,0.006 0.246,0.006Z" style="fill:url(#_Linear6);fill-rule:nonzero;"/>
        </g>
        <g transform="matrix(12,0,0,12,53.8639,18.4233)">
        </g>
        <g transform="matrix(12,0,0,12,57.0919,18.4233)">
            <path d="M0.105,-0L0.105,-0.7L0.419,-0.7C0.5,-0.7 0.562,-0.684 0.605,-0.652C0.649,-0.62 0.67,-0.575 0.67,-0.519C0.67,-0.481 0.662,-0.449 0.644,-0.423C0.627,-0.397 0.604,-0.377 0.576,-0.363C0.547,-0.349 0.516,-0.342 0.483,-0.342L0.501,-0.372C0.541,-0.372 0.576,-0.365 0.607,-0.351C0.638,-0.337 0.662,-0.317 0.68,-0.29C0.698,-0.262 0.707,-0.229 0.707,-0.189C0.707,-0.129 0.684,-0.083 0.64,-0.05C0.595,-0.017 0.528,-0 0.439,-0L0.105,-0ZM0.205,-0.082L0.435,-0.082C0.49,-0.082 0.533,-0.091 0.562,-0.109C0.592,-0.128 0.606,-0.157 0.606,-0.197C0.606,-0.238 0.592,-0.267 0.562,-0.286C0.533,-0.305 0.49,-0.314 0.435,-0.314L0.196,-0.314L0.196,-0.395L0.41,-0.395C0.461,-0.395 0.5,-0.405 0.528,-0.423C0.556,-0.442 0.57,-0.47 0.57,-0.507C0.57,-0.544 0.556,-0.572 0.528,-0.591C0.5,-0.609 0.461,-0.619 0.41,-0.619L0.205,-0.619L0.205,-0.082Z" style="fill:url(#_Linear7);fill-rule:nonzero;"/>
        </g>
        <g transform="matrix(12,0,0,12,66.1759,18.4233)">
            <path d="M0.318,0.006C0.265,0.006 0.218,-0.006 0.176,-0.029C0.135,-0.052 0.102,-0.084 0.078,-0.125C0.054,-0.166 0.042,-0.213 0.042,-0.265C0.042,-0.318 0.054,-0.365 0.078,-0.405C0.102,-0.446 0.135,-0.477 0.176,-0.5C0.217,-0.524 0.265,-0.535 0.318,-0.535C0.371,-0.535 0.418,-0.524 0.46,-0.501C0.501,-0.477 0.534,-0.446 0.558,-0.405C0.581,-0.365 0.593,-0.318 0.593,-0.265C0.593,-0.213 0.581,-0.166 0.558,-0.125C0.534,-0.084 0.501,-0.052 0.46,-0.029C0.418,-0.006 0.37,0.006 0.318,0.006ZM0.318,-0.079C0.352,-0.079 0.383,-0.086 0.41,-0.101C0.436,-0.117 0.458,-0.139 0.473,-0.167C0.489,-0.195 0.496,-0.228 0.496,-0.265C0.496,-0.303 0.489,-0.336 0.473,-0.364C0.458,-0.391 0.436,-0.413 0.41,-0.428C0.383,-0.444 0.352,-0.451 0.318,-0.451C0.284,-0.451 0.253,-0.444 0.227,-0.428C0.2,-0.413 0.179,-0.391 0.163,-0.364C0.147,-0.336 0.139,-0.303 0.139,-0.265C0.139,-0.228 0.147,-0.195 0.163,-0.167C0.179,-0.139 0.2,-0.117 0.227,-0.101C0.253,-0.086 0.284,-0.079 0.318,-0.079Z" style="fill:url(#_Linear8);fill-rule:nonzero;"/>
        </g>
        <g transform="matrix(12,0,0,12,73.7359,18.4233)">
            <path d="M0.42,-0L0.42,-0.112L0.415,-0.133L0.415,-0.324C0.415,-0.365 0.404,-0.396 0.38,-0.419C0.356,-0.441 0.321,-0.452 0.273,-0.452C0.241,-0.452 0.211,-0.447 0.181,-0.437C0.151,-0.426 0.126,-0.413 0.105,-0.395L0.065,-0.467C0.092,-0.489 0.125,-0.506 0.164,-0.518C0.202,-0.529 0.242,-0.535 0.284,-0.535C0.357,-0.535 0.413,-0.517 0.452,-0.482C0.492,-0.447 0.511,-0.392 0.511,-0.32L0.511,-0L0.42,-0ZM0.246,0.006C0.207,0.006 0.172,-0.001 0.142,-0.014C0.113,-0.027 0.09,-0.046 0.074,-0.069C0.058,-0.093 0.05,-0.12 0.05,-0.15C0.05,-0.179 0.057,-0.205 0.07,-0.228C0.084,-0.251 0.106,-0.27 0.137,-0.284C0.169,-0.298 0.21,-0.305 0.263,-0.305L0.431,-0.305L0.431,-0.236L0.267,-0.236C0.219,-0.236 0.187,-0.228 0.17,-0.212C0.153,-0.196 0.145,-0.177 0.145,-0.154C0.145,-0.128 0.155,-0.107 0.176,-0.091C0.197,-0.076 0.226,-0.068 0.262,-0.068C0.298,-0.068 0.33,-0.076 0.357,-0.092C0.384,-0.108 0.403,-0.132 0.415,-0.162L0.434,-0.096C0.421,-0.064 0.399,-0.04 0.367,-0.021C0.335,-0.003 0.295,0.006 0.246,0.006Z" style="fill:url(#_Linear9);fill-rule:nonzero;"/>
        </g>
        <g transform="matrix(12,0,0,12,80.9119,18.4233)">
            <rect x="0.091" y="-0.742" width="0.096" height="0.742" style="fill:url(#_Linear10);fill-rule:nonzero;"/>
        </g>
        <g transform="matrix(12,0,0,12,84.2599,18.4233)">
        </g>
    </g>
    <defs>
        <linearGradient id="_Linear1" x1="0" y1="0" x2="1" y2="0" gradientUnits="userSpaceOnUse" gradientTransform="matrix(5.41169,0,0,5.41169,0.137074,-0.299305)"><stop offset="0" style="stop-color:rgb(100,131,129);stop-opacity:1"/><stop offset="0.51" style="stop-color:rgb(90,112,130);stop-opacity:1"/><stop offset="1" style="stop-color:rgb(58,50,134);stop-opacity:1"/></linearGradient>
        <linearGradient id="_Linear2" x1="0" y1="0" x2="1" y2="0" gradientUnits="userSpaceOnUse" gradientTransform="matrix(5.41169,0,0,5.41169,-0.449926,-0.299305)"><stop offset="0" style="stop-color:rgb(100,131,129);stop-opacity:1"/><stop offset="0.51" style="stop-color:rgb(90,112,130);stop-opacity:1"/><stop offset="1" style="stop-color:rgb(58,50,134);stop-opacity:1"/></linearGradient>
        <linearGradient id="_Linear3" x1="0" y1="0" x2="1" y2="0" gradientUnits="userSpaceOnUse" gradientTransform="matrix(5.41169,0,0,5.41169,-0.728926,-0.299305)"><stop offset="0" style="stop-color:rgb(100,131,129);stop-opacity:1"/><stop offset="0.51" style="stop-color:rgb(90,112,130);stop-opacity:1"/><stop offset="1" style="stop-color:rgb(58,50,134);stop-opacity:1"/></linearGradient>
        <linearGradient id="_Linear4" x1="0" y1="0" x2="1" y2="0" gradientUnits="userSpaceOnUse" gradientTransform="matrix(5.41169,0,0,5.41169,-1.32693,-0.299305)"><stop offset="0" style="stop-color:rgb(100,131,129);stop-opacity:1"/><stop offset="0.51" style="stop-color:rgb(90,112,130);stop-opacity:1"/><stop offset="1" style="stop-color:rgb(58,50,134);stop-opacity:1"/></linearGradient>
        <linearGradient id="_Linear5" x1="0" y1="0" x2="1" y2="0" gradientUnits="userSpaceOnUse" gradientTransform="matrix(5.41169,0,0,5.41169,-1.72993,-0.299305)"><stop offset="0" style="stop-color:rgb(100,131,129);stop-opacity:1"/><stop offset="0.51" style="stop-color:rgb(90,112,130);stop-opacity:1"/><stop offset="1" style="stop-color:rgb(58,50,134);stop-opacity:1"/></linearGradient>
        <linearGradient id="_Linear6" x1="0" y1="0" x2="1" y2="0" gradientUnits="userSpaceOnUse" gradientTransform="matrix(5.41169,0,0,5.41169,-2.41093,-0.299305)"><stop offset="0" style="stop-color:rgb(100,131,129);stop-opacity:1"/><stop offset="0.51" style="stop-color:rgb(90,112,130);stop-opacity:1"/><stop offset="1" style="stop-color:rgb(58,50,134);stop-opacity:1"/></linearGradient>
        <linearGradient id="_Linear7" x1="0" y1="0" x2="1" y2="0" gradientUnits="userSpaceOnUse" gradientTransform="matrix(5.41169,0,0,5.41169,-3.27793,-0.299305)"><stop offset="0" style="stop-color:rgb(100,131,129);stop-opacity:1"/><stop offset="0.51" style="stop-color:rgb(90,112,130);stop-opacity:1"/><stop offset="1" style="stop-color:rgb(58,50,134);stop-opacity:1"/></linearGradient>
        <linearGradient id="_Linear8" x1="0" y1="0" x2="1" y2="0" gradientUnits="userSpaceOnUse" gradientTransform="matrix(5.41169,0,0,5.41169,-4.03493,-0.299305)"><stop offset="0" style="stop-color:rgb(100,131,129);stop-opacity:1"/><stop offset="0.51" style="stop-color:rgb(90,112,130);stop-opacity:1"/><stop offset="1" style="stop-color:rgb(58,50,134);stop-opacity:1"/></linearGradient>
        <linearGradient id="_Linear9" x1="0" y1="0" x2="1" y2="0" gradientUnits="userSpaceOnUse" gradientTransform="matrix(5.41169,0,0,5.41169,-4.66493,-0.299305)"><stop offset="0" style="stop-color:rgb(100,131,129);stop-opacity:1"/><stop offset="0.51" style="stop-color:rgb(90,112,130);stop-opacity:1"/><stop offset="1" style="stop-color:rgb(58,50,134);stop-opacity:1"/></linearGradient>
        <linearGradient id="_Linear10" x1="0" y1="0" x2="1" y2="0" gradientUnits="userSpaceOnUse" gradientTransform="matrix(5.41169,0,0,5.41169,-5.26293,-0.299305)"><stop offset="0" style="stop-color:rgb(100,131,129);stop-opacity:1"/><stop offset="0.51" style="stop-color:rgb(90,112,130);stop-opacity:1"/><stop offset="1" style="stop-color:rgb(58,50,134);stop-opacity:1"/></linearGradient>
    </defs>
</svg>
