<?xml version="1.0" encoding="UTF-8"?>
<svg id="Layer_1" xmlns="http://www.w3.org/2000/svg" version="1.1" viewBox="0 0 1920 1080">
  <!-- Generator: Adobe Illustrator 29.2.1, SVG Export Plug-In . SVG Version: 2.1.0 Build 116)  -->
  <defs>
    <style>
      .st0 {
        fill: #648381;
      }

      .st1 {
        fill: #3b3287;
      }
    </style>
  </defs>
  <path class="st0" d="M92.37,466.96H11.35v-29.37h195.47v29.37h-81.02v206.95h-33.42v-206.95Z"/>
  <path class="st0" d="M228.77,439.61c0-11.82,9.45-21.27,21.94-21.27s21.94,9.12,21.94,20.59c0,12.15-9.12,21.61-21.94,21.61s-21.94-9.12-21.94-20.93ZM234.51,494.98h32.41v178.93h-32.41v-178.93Z"/>
  <path class="st0" d="M470.49,565.88v108.03h-30.72v-23.63c-10.8,16.21-30.72,25.66-58.74,25.66-40.51,0-66.17-21.61-66.17-52.67,0-28.7,18.57-52.33,71.91-52.33h51.32v-6.42c0-27.35-15.87-43.21-47.94-43.21-21.27,0-42.88,7.43-56.72,19.24l-13.5-24.31c18.57-14.85,45.24-22.96,73.93-22.96,48.95,0,76.64,23.63,76.64,72.58ZM438.08,619.22v-24.98h-49.97c-32.07,0-41.19,12.49-41.19,27.68,0,17.89,14.85,29.03,39.5,29.03s43.55-11.14,51.65-31.73Z"/>
  <path class="st0" d="M626.8,493.29v31.4c-2.7-.34-5.06-.34-7.43-.34-34.77,0-56.38,21.27-56.38,60.43v89.13h-32.41v-178.93h31.06v30.05c11.48-20.93,33.76-31.73,65.16-31.73Z"/>
  <path class="st0" d="M836.45,570.94v102.97h-32.41v-99.25c0-35.11-17.56-52.33-48.28-52.33-34.44,0-56.72,20.59-56.72,59.42v92.17h-32.41v-178.93h31.06v27.01c13.17-18.23,36.12-28.7,64.48-28.7,43.55,0,74.27,24.98,74.27,77.65Z"/>
  <path class="st0" d="M1038.34,565.88v108.03h-30.72v-23.63c-10.8,16.21-30.72,25.66-58.74,25.66-40.51,0-66.17-21.61-66.17-52.67,0-28.7,18.57-52.33,71.91-52.33h51.32v-6.42c0-27.35-15.87-43.21-47.94-43.21-21.27,0-42.88,7.43-56.72,19.24l-13.5-24.31c18.57-14.85,45.24-22.96,73.94-22.96,48.95,0,76.63,23.63,76.63,72.58ZM1005.93,619.22v-24.98h-49.97c-32.07,0-41.19,12.49-41.19,27.68,0,17.89,14.85,29.03,39.5,29.03s43.55-11.14,51.65-31.73Z"/>
  <path class="st1" d="M1394.51,610.78c0,40.17-29.71,63.13-88.79,63.13h-108.71v-236.32h101.96c52.67,0,83.05,22.28,83.05,60.77,0,27.01-14.52,44.9-36.12,53.68,30.38,6.75,48.61,26.67,48.61,58.74ZM1222,458.18v85.75h75.29c37.81,0,59.75-14.52,59.75-42.88s-21.94-42.88-59.75-42.88h-75.29ZM1369.53,608.75c0-30.72-22.62-44.23-64.14-44.23h-83.39v88.79h83.39c41.52,0,64.14-13.5,64.14-44.56Z"/>
  <path class="st1" d="M1428.62,585.12c0-52.67,38.49-90.14,90.48-90.14s90.14,37.47,90.14,90.14-38.15,90.48-90.14,90.48-90.48-37.81-90.48-90.48ZM1584.92,585.12c0-41.52-28.02-69.21-65.83-69.21s-66.17,27.68-66.17,69.21,28.36,69.21,66.17,69.21,65.83-27.68,65.83-69.21Z"/>
  <path class="st1" d="M1791.21,563.85v110.06h-22.96v-27.68c-10.8,18.23-31.73,29.37-61.11,29.37-40.17,0-64.82-20.93-64.82-51.65,0-27.35,17.55-50.3,68.53-50.3h56.38v-10.8c0-30.38-17.22-46.93-50.3-46.93-22.96,0-44.56,8.1-59.08,20.93l-10.8-17.89c17.89-15.19,44.23-23.97,72.25-23.97,45.91,0,71.91,22.96,71.91,68.87ZM1767.24,620.57v-29.03h-55.7c-34.44,0-45.58,13.5-45.58,31.74,0,20.59,16.54,33.42,44.9,33.42s46.93-12.83,56.38-36.12Z"/>
  <path class="st1" d="M1856.37,423.41h23.97v250.5h-23.97v-250.5Z"/>
</svg>