<?xml version="1.0" encoding="UTF-8" standalone="no"?>
<!DOCTYPE svg PUBLIC "-//W3C//DTD SVG 1.1//EN" "http://www.w3.org/Graphics/SVG/1.1/DTD/svg11.dtd">
<svg width="100%" height="100%" viewBox="0 0 62 62" version="1.1" xmlns="http://www.w3.org/2000/svg" xmlns:xlink="http://www.w3.org/1999/xlink" xml:space="preserve" xmlns:serif="http://www.serif.com/" style="fill-rule:evenodd;clip-rule:evenodd;stroke-linejoin:round;stroke-miterlimit:2;">
    <g transform="matrix(1.00911,0,0,1.00911,3.03577e-18,4.04769e-18)">
        <g id="standard-grid-pattern">
            <path d="M61.44,37.074L61.44,38.568L59.137,40.871L61.44,43.175L61.44,44.727L57.569,40.856L60.768,37.657C60.99,37.434 61.214,37.24 61.44,37.074Z" style="fill:rgb(58,50,134);fill-opacity:0.8;"/>
            <path d="M0,44.727L0,43.175L0.993,44.167L3.362,41.798C3.956,41.204 4.279,40.606 4.332,40.002C4.384,39.399 4.137,38.823 3.589,38.275C3.041,37.727 2.465,37.48 1.862,37.532C1.258,37.585 0.66,37.908 0.066,38.502L-0,38.568L-0,37.074C0.608,36.627 1.227,36.385 1.858,36.35C2.722,36.301 3.525,36.647 4.268,37.39C4.76,37.883 5.082,38.392 5.232,38.918C5.383,39.444 5.386,39.954 5.241,40.448C5.229,40.492 5.215,40.535 5.2,40.578C5.399,40.466 5.601,40.377 5.808,40.313C6.332,40.149 6.863,40.148 7.404,40.311C7.944,40.474 8.472,40.813 8.988,41.329C9.76,42.101 10.126,42.931 10.086,43.818C10.047,44.705 9.563,45.613 8.635,46.541L5.224,49.951L0,44.727ZM1.784,44.959L5.209,48.383L7.825,45.767C8.48,45.112 8.844,44.475 8.915,43.856C8.987,43.238 8.726,42.632 8.132,42.038C7.538,41.444 6.931,41.182 6.312,41.253C5.693,41.324 5.056,41.687 4.401,42.342L1.784,44.959Z" style="fill:rgb(58,50,134);fill-opacity:0.8;"/>
            <path d="M24.42,61.44L22.872,61.44L23.185,61.127C23.84,60.472 24.204,59.835 24.275,59.216C24.347,58.598 24.086,57.992 23.492,57.398C22.898,56.804 22.291,56.542 21.672,56.613C21.053,56.684 20.416,57.047 19.761,57.702L17.144,60.319L18.265,61.44L16.713,61.44L11.489,56.216L14.688,53.017C15.51,52.194 16.354,51.758 17.218,51.71C18.082,51.661 18.885,52.007 19.628,52.75C20.12,53.243 20.442,53.752 20.592,54.278C20.743,54.804 20.746,55.314 20.601,55.808C20.589,55.852 20.575,55.895 20.56,55.938C20.759,55.826 20.961,55.737 21.168,55.673C21.692,55.509 22.223,55.508 22.764,55.671C23.304,55.834 23.832,56.173 24.348,56.689C25.12,57.461 25.486,58.291 25.446,59.178C25.413,59.918 25.071,60.672 24.42,61.44ZM16.353,59.527L18.722,57.158C19.316,56.564 19.639,55.966 19.692,55.362C19.744,54.759 19.497,54.183 18.949,53.635C18.401,53.087 17.825,52.84 17.222,52.892C16.618,52.945 16.02,53.268 15.426,53.862L13.057,56.231L16.353,59.527Z" style="fill:rgb(58,50,134);fill-opacity:0.8;"/>
            <path d="M55.14,61.44L53.592,61.44L53.905,61.127C54.56,60.472 54.924,59.835 54.995,59.216C55.067,58.598 54.806,57.992 54.212,57.398C53.618,56.804 53.011,56.542 52.392,56.613C51.773,56.684 51.136,57.047 50.481,57.702L47.864,60.319L48.985,61.44L47.433,61.44L42.209,56.216L45.408,53.017C46.23,52.194 47.074,51.758 47.938,51.71C48.802,51.661 49.605,52.007 50.348,52.75C50.84,53.243 51.162,53.752 51.312,54.278C51.463,54.804 51.466,55.314 51.321,55.808C51.309,55.852 51.295,55.895 51.28,55.938C51.479,55.826 51.681,55.737 51.888,55.673C52.412,55.509 52.943,55.508 53.484,55.671C54.024,55.834 54.552,56.173 55.068,56.689C55.84,57.461 56.206,58.291 56.166,59.178C56.133,59.918 55.791,60.672 55.14,61.44ZM47.073,59.527L49.442,57.158C50.036,56.564 50.359,55.966 50.412,55.362C50.464,54.759 50.217,54.183 49.669,53.635C49.121,53.087 48.545,52.84 47.942,52.892C47.338,52.945 46.74,53.268 46.146,53.862L43.777,56.231L47.073,59.527Z" style="fill:rgb(58,50,134);fill-opacity:0.8;"/>
            <path d="M35.92,40.578C36.119,40.466 36.321,40.377 36.528,40.313C37.052,40.149 37.583,40.148 38.124,40.311C38.664,40.474 39.192,40.813 39.708,41.329C40.48,42.101 40.846,42.931 40.806,43.818C40.767,44.705 40.283,45.613 39.355,46.541L35.944,49.951L26.849,40.856L30.048,37.657C30.87,36.834 31.714,36.398 32.578,36.35C33.442,36.301 34.245,36.647 34.988,37.39C35.48,37.883 35.802,38.392 35.952,38.918C36.103,39.444 36.106,39.954 35.961,40.448C35.949,40.492 35.935,40.535 35.92,40.578ZM32.504,44.959L35.929,48.383L38.545,45.767C39.2,45.112 39.564,44.475 39.635,43.856C39.707,43.238 39.446,42.632 38.852,42.038C38.258,41.444 37.651,41.182 37.032,41.253C36.413,41.324 35.776,41.687 35.121,42.342L32.504,44.959ZM31.713,44.167L34.082,41.798C34.676,41.204 34.999,40.606 35.052,40.002C35.104,39.399 34.857,38.823 34.309,38.275C33.761,37.727 33.185,37.48 32.582,37.532C31.978,37.585 31.38,37.908 30.786,38.502L28.417,40.871L31.713,44.167Z" style="fill:rgb(58,50,134);fill-opacity:0.8;"/>
            <path d="M20.56,25.218C20.759,25.106 20.961,25.017 21.168,24.953C21.692,24.789 22.223,24.788 22.764,24.951C23.304,25.114 23.832,25.453 24.348,25.969C25.12,26.741 25.486,27.571 25.446,28.458C25.407,29.345 24.923,30.253 23.995,31.181L20.584,34.591L11.489,25.496L14.688,22.297C15.51,21.474 16.354,21.038 17.218,20.99C18.082,20.941 18.885,21.287 19.628,22.03C20.12,22.523 20.442,23.032 20.592,23.558C20.743,24.084 20.746,24.594 20.601,25.088C20.589,25.132 20.575,25.175 20.56,25.218ZM17.144,29.599L20.569,33.023L23.185,30.407C23.84,29.752 24.204,29.115 24.275,28.496C24.347,27.878 24.086,27.272 23.492,26.678C22.898,26.084 22.291,25.822 21.672,25.893C21.053,25.964 20.416,26.327 19.761,26.982L17.144,29.599ZM16.353,28.807L18.722,26.438C19.316,25.844 19.639,25.246 19.692,24.642C19.744,24.039 19.497,23.463 18.949,22.915C18.401,22.367 17.825,22.12 17.222,22.172C16.618,22.225 16.02,22.548 15.426,23.142L13.057,25.511L16.353,28.807Z" style="fill:rgb(58,50,134);fill-opacity:0.8;"/>
            <path d="M0,14.007L0,12.455L0.993,13.447L3.362,11.078C3.956,10.484 4.279,9.886 4.332,9.282C4.384,8.679 4.137,8.103 3.589,7.555C3.041,7.007 2.465,6.76 1.862,6.812C1.258,6.865 0.66,7.188 0.066,7.782L-0,7.848L-0,6.354C0.608,5.907 1.227,5.665 1.858,5.63C2.722,5.581 3.525,5.927 4.268,6.67C4.76,7.163 5.082,7.672 5.232,8.198C5.383,8.724 5.386,9.234 5.241,9.728C5.229,9.772 5.215,9.815 5.2,9.858C5.399,9.746 5.601,9.657 5.808,9.593C6.332,9.429 6.863,9.428 7.404,9.591C7.944,9.754 8.472,10.093 8.988,10.609C9.76,11.381 10.126,12.211 10.086,13.098C10.047,13.985 9.563,14.893 8.635,15.821L5.224,19.231L0,14.007ZM1.784,14.239L5.209,17.663L7.825,15.047C8.48,14.392 8.844,13.755 8.915,13.136C8.987,12.518 8.726,11.912 8.132,11.318C7.538,10.724 6.931,10.462 6.312,10.533C5.693,10.604 5.056,10.967 4.401,11.622L1.784,14.239Z" style="fill:rgb(58,50,134);fill-opacity:0.8;"/>
            <path d="M16.713,0L18.265,0L20.569,2.303L22.872,0L24.42,0C24.291,0.153 24.149,0.307 23.995,0.461L20.584,3.871L16.713,0Z" style="fill:rgb(58,50,134);fill-opacity:0.8;"/>
            <path d="M35.92,9.858C36.119,9.746 36.321,9.657 36.528,9.593C37.052,9.429 37.583,9.428 38.124,9.591C38.664,9.754 39.192,10.093 39.708,10.609C40.48,11.381 40.846,12.211 40.806,13.098C40.767,13.985 40.283,14.893 39.355,15.821L35.944,19.231L26.849,10.136L30.048,6.937C30.87,6.114 31.714,5.678 32.578,5.63C33.442,5.581 34.245,5.927 34.988,6.67C35.48,7.163 35.802,7.672 35.952,8.198C36.103,8.724 36.106,9.234 35.961,9.728C35.949,9.772 35.935,9.815 35.92,9.858ZM31.713,13.447L34.082,11.078C34.676,10.484 34.999,9.886 35.052,9.282C35.104,8.679 34.857,8.103 34.309,7.555C33.761,7.007 33.185,6.76 32.582,6.812C31.978,6.865 31.38,7.188 30.786,7.782L28.417,10.151L31.713,13.447ZM32.504,14.239L35.929,17.663L38.545,15.047C39.2,14.392 39.564,13.755 39.635,13.136C39.707,12.518 39.446,11.912 38.852,11.318C38.258,10.724 37.651,10.462 37.032,10.533C36.413,10.604 35.776,10.967 35.121,11.622L32.504,14.239Z" style="fill:rgb(58,50,134);fill-opacity:0.8;"/>
            <path d="M61.44,6.354L61.44,7.848L59.137,10.151L61.44,12.455L61.44,14.007L57.569,10.136L60.768,6.937C60.99,6.714 61.214,6.52 61.44,6.354Z" style="fill:rgb(58,50,134);fill-opacity:0.8;"/>
            <path d="M47.433,0L48.985,0L51.289,2.303L53.592,0L55.14,0C55.011,0.153 54.869,0.307 54.715,0.461L51.304,3.871L47.433,0Z" style="fill:rgb(58,50,134);fill-opacity:0.8;"/>
            <path d="M51.28,25.218C51.479,25.106 51.681,25.017 51.888,24.953C52.412,24.789 52.943,24.788 53.484,24.951C54.024,25.114 54.552,25.453 55.068,25.969C55.84,26.741 56.206,27.571 56.166,28.458C56.127,29.345 55.643,30.253 54.715,31.181L51.304,34.591L42.209,25.496L45.408,22.297C46.23,21.474 47.074,21.038 47.938,20.99C48.802,20.941 49.605,21.287 50.348,22.03C50.84,22.523 51.162,23.032 51.312,23.558C51.463,24.084 51.466,24.594 51.321,25.088C51.309,25.132 51.295,25.175 51.28,25.218ZM47.073,28.807L49.442,26.438C50.036,25.844 50.359,25.246 50.412,24.642C50.464,24.039 50.217,23.463 49.669,22.915C49.121,22.367 48.545,22.12 47.942,22.172C47.338,22.225 46.74,22.548 46.146,23.142L43.777,25.511L47.073,28.807ZM47.864,29.599L51.289,33.023L53.905,30.407C54.56,29.752 54.924,29.115 54.995,28.496C55.067,27.878 54.806,27.272 54.212,26.678C53.618,26.084 53.011,25.822 52.392,25.893C51.773,25.964 51.136,26.327 50.481,26.982L47.864,29.599Z" style="fill:rgb(58,50,134);fill-opacity:0.8;"/>
            <path d="M0,54.903L0,52.154L1.511,53.665L0.136,55.039L-0,54.903Z" style="fill:rgb(100,131,129);fill-opacity:0.8;"/>
            <path d="M9.286,61.44L6.265,61.44L10.233,57.471L11.661,58.899L9.203,61.357L9.286,61.44Z" style="fill:rgb(100,131,129);fill-opacity:0.8;"/>
            <path d="M30.856,55.039L23.188,47.371L20.73,49.829L19.303,48.402L25.593,42.111L27.021,43.539L24.563,45.997L32.231,53.665L30.856,55.039Z" style="fill:rgb(100,131,129);fill-opacity:0.8;"/>
            <path d="M40.006,61.44L36.985,61.44L40.953,57.471L42.381,58.899L39.923,61.357L40.006,61.44Z" style="fill:rgb(100,131,129);fill-opacity:0.8;"/>
            <path d="M61.44,52.154L61.44,54.903L53.908,47.371L51.45,49.829L50.023,48.402L56.313,42.111L57.741,43.539L55.283,45.997L61.44,52.154Z" style="fill:rgb(100,131,129);fill-opacity:0.8;"/>
            <path d="M36.985,0L40.006,0L47.591,7.585L46.216,8.959L38.548,1.291L36.09,3.749L34.663,2.322L36.985,-0Z" style="fill:rgb(100,131,129);fill-opacity:0.8;"/>
            <path d="M6.265,0L9.286,0L16.871,7.585L15.496,8.959L7.828,1.291L5.37,3.749L3.943,2.322L6.265,-0Z" style="fill:rgb(100,131,129);fill-opacity:0.8;"/>
            <path d="M0,24.183L0,21.434L1.511,22.945L0.136,24.319L-0,24.183Z" style="fill:rgb(100,131,129);fill-opacity:0.8;"/>
            <path d="M15.496,39.679L7.828,32.011L5.37,34.469L3.943,33.042L10.233,26.751L11.661,28.179L9.203,30.637L16.871,38.305L15.496,39.679Z" style="fill:rgb(100,131,129);fill-opacity:0.8;"/>
            <path d="M30.856,24.319L23.188,16.651L20.73,19.109L19.303,17.682L25.593,11.391L27.021,12.819L24.563,15.277L32.231,22.945L30.856,24.319Z" style="fill:rgb(100,131,129);fill-opacity:0.8;"/>
            <path d="M46.216,39.679L38.548,32.011L36.09,34.469L34.663,33.042L40.953,26.751L42.381,28.179L39.923,30.637L47.591,38.305L46.216,39.679Z" style="fill:rgb(100,131,129);fill-opacity:0.8;"/>
            <path d="M61.44,21.434L61.44,24.183L53.908,16.651L51.45,19.109L50.023,17.682L56.313,11.391L57.741,12.819L55.283,15.277L61.44,21.434Z" style="fill:rgb(100,131,129);fill-opacity:0.8;"/>
        </g>
    </g>
</svg>
